<svg xmlns="http://www.w3.org/2000/svg">
  <symbol xmlns="http://www.w3.org/2000/svg" fill="none" viewBox="0 0 32 32" id="icon-time-update">
    <path fill="#fff" d="M3 16.037a13.948 13.948 0 0 0 3.086 8.684 14.158 14.158 0 0 0 7.852 4.914c3.101.715 6.355.372 9.234-.973a14.087 14.087 0 0 0 6.635-6.443 1.265 1.265 0 0 0-.831-1.889 1.298 1.298 0 0 0-1.066.247c-.148.116-.269.264-.353.431a11.377 11.377 0 0 1-4.25 4.757 11.517 11.517 0 0 1-6.164 1.745 11.65 11.65 0 0 1-5.528-1.389 11.533 11.533 0 0 1-4.188-3.837 11.387 11.387 0 0 1-.86-10.926 11.49 11.49 0 0 1 3.537-4.435A11.623 11.623 0 0 1 15.348 4.7a11.665 11.665 0 0 1 5.677.532 11.577 11.577 0 0 1 4.732 3.155H22.35c-.318-.005-.627.1-.874.298a1.337 1.337 0 0 0-.476.786 1.265 1.265 0 0 0 .3 1.028 1.286 1.286 0 0 0 .986.438h6.428c.341 0 .668-.135.91-.374A1.27 1.27 0 0 0 30 9.663v-6.31c.006-.315-.1-.622-.3-.867-.2-.245-.481-.412-.793-.472a1.296 1.296 0 0 0-1.037.299 1.276 1.276 0 0 0-.442.976v3.123a14.173 14.173 0 0 0-7.226-4.066 14.256 14.256 0 0 0-8.282.66 14.121 14.121 0 0 0-6.48 5.156A13.939 13.939 0 0 0 3 16.037Z"></path>
    <path fill="#fff" d="M21.834 21.667a.992.992 0 0 1-.584-.175l-6.416-3.85v-6.475a1.167 1.167 0 1 1 2.333 0v5.191l5.25 3.15a1.11 1.11 0 0 1 .408 1.575 1.109 1.109 0 0 1-.991.584Z"></path>
  </symbol>
  <symbol xmlns="http://www.w3.org/2000/svg" fill="none" viewBox="0 0 14 14" id="icon-whatsapp">
    <g clip-path="url(#icon-whatsapp-clip)">
      <path fill="#1E222E" d="M7.002 0h-.004C3.138 0 0 3.14 0 7c0 1.531.493 2.95 1.333 4.103l-.873 2.6 2.69-.86A6.94 6.94 0 0 0 7.003 14C10.862 14 14 10.86 14 7s-3.139-7-6.998-7Z"></path>
      <path fill="#E3E5EB" d="M11.075 9.885c-.169.477-.84.872-1.374.988-.366.078-.843.14-2.452-.527-2.057-.852-3.381-2.943-3.485-3.078-.099-.136-.83-1.107-.83-2.112 0-1.004.51-1.493.715-1.703.169-.173.448-.251.716-.251.086 0 .164.004.234.008.206.008.309.02.445.345.168.407.58 1.412.629 1.515.05.103.1.243.03.379-.066.14-.124.202-.227.32-.103.12-.201.21-.305.339-.094.11-.2.23-.082.435.12.202.53.873 1.136 1.412.781.695 1.415.918 1.641 1.012.17.07.37.053.494-.078.156-.169.35-.449.547-.724.14-.198.316-.223.502-.153.189.066 1.19.56 1.395.663.205.103.341.152.39.239.05.086.05.493-.119.97Z"></path>
    </g>
    <defs>
      <clipPath id="icon-whatsapp-clip">
        <path fill="#fff" d="M0 0h14v14H0z"></path>
      </clipPath>
    </defs>
  </symbol>
  <symbol xmlns="http://www.w3.org/2000/svg" fill="none" viewBox="0 0 157 56" id="logo-gazprom-pay">
    <g fill="#0079C2" clip-path="url(#logo-gazprom-pay-clip)">
      <path d="M121.624 55.966h-2.116V36.81h5.284c3.462 0 5.737 1.623 5.737 5.402 0 4.469-2.694 5.64-6.133 5.64h-2.776v8.118l.004-.004Zm0-10.031h2.06c2.906 0 4.651-.451 4.651-3.727 0-2.712-1.508-3.484-4.043-3.484h-2.668v7.211ZM136.031 36.81h2.802l5.34 19.156h-2.327l-1.505-5.506h-6l-1.4 5.506h-2.328l5.418-19.156Zm1.375 1.545h-.052l-2.509 10.191h5.022l-2.457-10.191h-.004ZM145.47 36.81l4.44 9.602 4.465-9.602h2.327l-5.736 11.732v7.424h-2.113v-7.424l-5.71-11.732h2.327ZM30.74 10.113C29.562 4.917 26.604.69 26.197 0c-.642.97-3.002 4.7-4.2 8.84-1.307 4.615-1.5 8.711-1.048 12.744.448 4.032 2.142 8.173 2.142 8.173.9 2.178 2.25 4.506 3.128 5.651 1.286-1.682 4.243-6.707 5.162-13.265.512-3.644.534-6.834-.641-12.034v.004Zm-4.543 24.001c-.578-1.1-1.479-3.193-1.564-6.427-.023-3.126 1.219-5.801 1.582-6.36.323.559 1.394 2.89 1.52 6.08.085 3.126-.942 5.584-1.542 6.707h.004Zm4.195-15.182c-.045 1.98-.278 4.073-.578 5.326.107-2.156-.149-5.196-.642-7.568-.492-2.373-1.886-6.338-2.998-8.174-1.026 1.746-2.293 5.178-2.957 8.151-.667 2.977-.685 6.577-.685 7.659-.175-.91-.62-4.156-.493-7.42.103-2.693.726-5.458 1.07-6.73 1.305-4.248 2.787-6.964 3.065-7.397.278.433 2.142 3.775 3.11 7.29.96 3.513 1.156 6.878 1.111 8.862"></path>
      <path d="M28.198 36.62h-8.965v6.059s.015-.019.023-.026a5.388 5.388 0 0 1 7.652 0 5.474 5.474 0 0 1 0 7.703c-.007.008-.018.015-.026.026 0 0-.022.019-.03.03a10.722 10.722 0 0 1-7.611 3.16 10.761 10.761 0 0 1-7.642-3.186c-3.717-3.742-4.158-9.535-1.323-13.765.382-.57.823-1.116 1.323-1.62a10.742 10.742 0 0 1 7.642-3.185V17.253C8.612 17.253 0 25.926 0 36.625c0 10.698 8.616 19.368 19.24 19.368 5.541 0 10.533-2.358 14.046-6.133V36.62h-5.088ZM44.638 52.539c0 1.354-.167 3.458-2.857 3.458h-3.187c-2.695 0-2.858-2.104-2.858-3.458V40.087c0-1.354.163-3.458 2.858-3.458h3.187c2.694 0 2.857 2.104 2.857 3.458v2.738H40.79v-3.16c0-.332-.248-.637-.604-.637-.219 0-.604.138-.604.637v13.21c0 .496.385.638.604.638.356 0 .604-.306.604-.638v-4.242h-.578v-2.13h4.425v6.036ZM50.437 48.719l.66-9.68h.219l.66 9.68h-1.539Zm-4.261 7.278h3.765l.355-5.148h1.813l.36 5.148h3.764l-2.008-19.368h-6.048l-2.005 19.368h.004ZM57.666 53.56l3.684-14.522H58.05v-2.413h7.257v2.41l-3.684 14.477h3.906v2.485h-7.864V53.56ZM71.194 46.995V39.03h.496c.412 0 .716.359.716.97v6.029c0 .608-.3.97-.716.97h-.496v-.004Zm-3.85 9.001h3.85v-6.584h2.197c2.695 0 2.858-2.104 2.858-3.458V40.09c0-1.358-.163-3.458-2.858-3.458H67.34V56l.004-.004ZM82.08 46.413v-7.386h.498c.41 0 .715.358.715.97v5.45c0 .608-.304.966-.716.966h-.496Zm5.552 9.584-1.897-7.554c1.375-.552 1.4-1.828 1.4-2.354v-6.006c0-1.358-.162-3.458-2.857-3.458h-6.047v19.368h3.846v-7.166h.274l1.32 7.166h3.958l.003.004ZM94.766 52.874c0 .332-.249.635-.605.635-.218 0-.604-.139-.604-.635V39.665c0-.5.386-.638.605-.638.355 0 .603.306.603.638v13.21Zm-5.059-.34c0 1.355.167 3.459 2.861 3.459h3.187c2.694 0 2.857-2.104 2.857-3.458V40.083c0-1.354-.163-3.458-2.857-3.458h-3.187c-2.694 0-2.861 2.104-2.861 3.458v12.452ZM110.693 36.625h5.003v19.372h-3.846v-12.15h-.138l-1.978 12.15h-3.08l-1.979-12.15h-.137v12.15h-3.85V36.625h5.002l2.502 13.616 2.501-13.616Z"></path>
    </g>
    <defs>
      <clipPath id="logo-gazprom-pay-clip">
        <path fill="#fff" d="M0 0h157v56H0z"></path>
      </clipPath>
    </defs>
  </symbol>
  <symbol xmlns="http://www.w3.org/2000/svg" fill="none" viewBox="0 0 15 12" id="icon-telegram">
    <mask id="icon-telegram-mask" width="15" height="12" x="0" y="0" maskUnits="userSpaceOnUse">
      <path fill="#fff" fill-rule="evenodd" d="M.5.167h14v11.666H.5V.167Z" clip-rule="evenodd"></path>
    </mask>
    <g mask="url(#icon-telegram-mask)">
      <path fill="#1E222E" fill-rule="evenodd" d="M14.5 1.104c-.073.326-.15.652-.22.979l-1.355 6.344c-.195.91-.388 1.822-.587 2.732a1.363 1.363 0 0 1-.129.342c-.152.287-.402.394-.71.298a1.406 1.406 0 0 1-.402-.195c-1.006-.729-2.007-1.465-3.01-2.2l-.116-.082c-.033.029-.065.053-.094.08l-1.552 1.481a.714.714 0 0 1-.559.223l.056-.836.125-1.73c.007-.09.03-.184.019-.272-.046-.332.141-.525.37-.729 1.856-1.654 3.703-3.319 5.553-4.98.027-.025.062-.046.078-.076.03-.056.047-.118.07-.177-.063-.017-.132-.06-.187-.047a1.153 1.153 0 0 0-.323.136 6370.27 6370.27 0 0 0-7.229 4.524c-.067.042-.126.065-.212.038-1.022-.323-2.047-.638-3.069-.961a1.302 1.302 0 0 1-.352-.172c-.199-.14-.223-.344-.045-.51.13-.12.288-.228.453-.294.86-.342 1.728-.67 2.593-1C6.953 2.76 10.24 1.5 13.528.243c.104-.04.218-.067.33-.075.296-.023.515.137.605.425.011.034.025.067.037.1v.41Z" clip-rule="evenodd"></path>
    </g>
  </symbol>
  <symbol xmlns="http://www.w3.org/2000/svg" fill="none" viewBox="0 0 20 20" id="icon-flag">
    <g clip-path="url(#icon-flag-clip)">
      <path fill="#00247D" d="M0 5.033v2.19h3.127L0 5.032Zm2.591 12.19h4.631V13.98l-4.63 3.242Zm10.187-3.243v3.242h4.63l-4.63-3.242ZM0 12.778v2.19l3.128-2.19H0Zm17.41-10h-4.632V6.02l4.631-3.243ZM20 14.968v-2.19h-3.128L20 14.968Zm0-7.746v-2.19l-3.127 2.19H20ZM7.222 2.778h-4.63l4.63 3.243V2.778Z"></path>
      <path fill="#CF1B2B" d="m13.967 12.778 5.395 3.778a2.21 2.21 0 0 0 .55-.972l-4.008-2.806h-1.937Zm-6.745 0H6.033L.638 16.555c.29.295.66.505 1.077.603l5.507-3.856v-.524Zm5.556-5.556h1.19l5.394-3.778a2.216 2.216 0 0 0-1.076-.602l-5.508 3.856v.524Zm-6.745 0L.638 3.444a2.219 2.219 0 0 0-.55.972l4.008 2.806h1.937Z"></path>
      <path fill="#EEE" d="M20 11.667h-8.333v5.555h1.11V13.98l4.631 3.242h.37a2.217 2.217 0 0 0 1.584-.666l-5.395-3.778h1.937l4.008 2.806c.052-.187.088-.38.088-.584v-.032l-3.128-2.19H20v-1.111Zm-20 0v1.11h3.128L0 14.968V15c0 .606.244 1.154.638 1.556l5.395-3.778h1.19v.524l-5.509 3.856c.164.039.333.064.508.064h.37l4.63-3.243v3.243h1.111v-5.555H0ZM20 5c0-.582-.229-1.141-.638-1.555l-5.395 3.777h-1.19v-.524l5.51-3.856a2.222 2.222 0 0 0-.51-.064h-.368L12.778 6.02V2.778h-1.111v5.555H20v-1.11h-3.127L20 5.032V5ZM7.222 2.778V6.02l-4.63-3.243h-.37a2.214 2.214 0 0 0-1.584.667l5.395 3.777H4.096L.087 4.416C.032 4.606.003 4.802 0 5v.033l3.127 2.19H0v1.11h8.333V2.778h-1.11Z"></path>
      <path fill="#CF1B2B" d="M11.667 8.333V2.778H8.333v5.555H0v3.334h8.333v5.555h3.334v-5.555H20V8.333h-8.333Z"></path>
    </g>
    <defs>
      <clipPath id="icon-flag-clip">
        <path fill="#fff" d="M0 0h20v20H0z"></path>
      </clipPath>
    </defs>
  </symbol>
  <symbol xmlns="http://www.w3.org/2000/svg" fill="none" viewBox="0 0 32 32" id="icon-like">
    <path fill="#fff" d="M18.825 31c-8.51 0-8.575-.354-9.629-1.148-.559-.421-1.613-.713-5.466-.964-.279-.02-.546-.126-.724-.343C2.925 28.445 1 25.633 1 21.13c0-4.439 1.378-6.463 1.436-6.557.17-.274.471-.44.793-.44 3.163 0 7.548-4.046 10.496-11.107C14.235 1.804 14.34 1 16.212 1c1.065 0 2.26.764 2.849 1.745 1.208 2.002.595 6.304.027 8.602 1.931-.016 5.426-.042 7.09-.042 2.313 0 3.844 1.381 3.89 3.402.016.666-.072 1.518-.264 1.959.51.51 1.166 1.276 1.195 2.264.036 1.276-.798 2.247-1.33 2.804.122.37.366.863.342 1.45-.059 1.447-1.173 2.379-1.867 2.865.057.396.103 1.143-.024 1.72-.501 2.305-3.873 3.23-9.295 3.23V31ZM4.227 26.985c3.356.28 5.15.655 6.095 1.369.733.553.62.771 8.503.771 2.404 0 7.106-.1 7.467-1.754.143-.661-.552-1.311-.555-1.316a.95.95 0 0 1 .485-1.224c.008-.004 1.877-.674 1.92-1.721.027-.669-.431-1.071-.442-1.088-.272-.424-.173-1.006.241-1.295.005-.003 1.216-.739 1.186-1.741-.022-.797-1.07-1.358-1.102-1.376a.949.949 0 0 1-.286-1.39s.476-.757.459-1.468c-.035-1.523-1.669-1.57-2.019-1.57-2.362 0-8.427.023-8.427.023a.926.926 0 0 1-.787-.416c-.176-.261-.188-.588-.086-.885.915-2.639 1.426-6.78.577-8.194-.25-.418-.307-.834-1.244-.834-.13 0-.438.103-.76.871-3.128 7.5-7.8 11.838-11.63 12.229-.33.754-.95 2.316-.95 5.152 0 2.893.914 5.133 1.354 5.857h.001Z"></path>
  </symbol>
  <symbol xmlns="http://www.w3.org/2000/svg" fill="none" viewBox="0 0 16 16" id="icon-location">
    <path fill="currentColor" fill-rule="evenodd" d="M13.687 2.313a.5.5 0 0 1 .109.544L9.129 14.191a.5.5 0 0 1-.922.006L6.286 9.714 1.803 7.793a.5.5 0 0 1 .007-.922l11.333-4.667a.5.5 0 0 1 .544.11ZM3.29 7.343l3.573 1.53a.5.5 0 0 1 .262.263l1.531 3.573 3.757-9.123-9.123 3.757Z" clip-rule="evenodd"></path>
  </symbol>
  <symbol xmlns="http://www.w3.org/2000/svg" fill="none" viewBox="0 0 32 32" id="icon-security">
    <path stroke="#fff" stroke-linecap="round" stroke-linejoin="round" stroke-miterlimit="10" stroke-width="2" d="M25 6.7c-3.4 0-6.6-1.4-9-3.7-2.4 2.3-5.6 3.7-9 3.7-1.4 0-2.7-.3-4-.7 0 14 5.5 19.6 13 23 7.5-3.4 13-9 13-23-1.3.4-2.6.7-4 .7Z"></path>
    <path stroke="#fff" stroke-linecap="round" stroke-linejoin="round" stroke-miterlimit="10" stroke-width="2" d="m12 16 3 3 6-6"></path>
  </symbol>
</svg>