<svg xmlns="http://www.w3.org/2000/svg">
    <symbol id="callout-left" xmlns="http://www.w3.org/2000/svg" fill="none">
        <path d="M15 0L0 31C0 31 12.5 40 32 40C13.5 22 15 0 15 0Z" fill="currentColor"/>
    </symbol>
    <symbol id="callout-right" xmlns="http://www.w3.org/2000/svg" fill="none">
        <path d="M17 0L32 31C32 31 19.5 40 0 40C18.5 22 17 0 17 0Z" fill="currentColor"/>
    </symbol>
    <symbol id="icon-copyright" xmlns="http://www.w3.org/2000/svg" fill="none">
        <path d="M16.2877 9.42773C15.413 7.97351 13.8195 7 12 7C9.23999 7 7 9.23999 7 12C7 14.76 9.23999 17 12 17C13.8195 17 15.413 16.0265 16.2877 14.5723L14.5729 13.5442C14.0483 14.4166 13.0927 15 12 15C10.3425 15 9 13.6575 9 12C9 10.3425 10.3425 9 12 9C13.093 9 14.0491 9.58386 14.5735 10.4568L16.2877 9.42773ZM22 12C22 6.47998 17.52 2 12 2C6.47998 2 2 6.47998 2 12C2 17.52 6.47998 22 12 22C17.52 22 22 17.52 22 12ZM4 12C4 7.57996 7.57996 4 12 4C16.42 4 20 7.57996 20 12C20 16.42 16.42 20 12 20C7.57996 20 4 16.42 4 12Z" fill="white" fill-opacity="0.8"/>
    </symbol>
    <symbol id="icon-logo" xmlns="http://www.w3.org/2000/svg" fill="none">
        <path d="M0 21V0H18V3H6V9H18V12H21V18H18V21H0ZM6 18H15V12H6V18ZM24 21V0H45V3H30V9H42V12H30V18H45V21H24ZM54 21V18H51V15H48V6H51V3H54V0H66V3H69V6H63V3H57V6H54V15H57V18H63V15H69V18H66V21H54Z" fill="#87F29A"/>
        <path d="M75 21V18H81V3H75V0H93V3H87V18H93V21H75ZM105 21V3H99V0H117V3H111V21H105Z" fill="white"/>
    </symbol>
    <symbol id="icon-mail" xmlns="http://www.w3.org/2000/svg" fill="none">
        <path d="M17.5 2.5C17.9603 2.5 18.3333 2.8731 18.3333 3.33333V16.6722C18.3333 17.1293 17.9539 17.5 17.5068 17.5H2.49317C2.03671 17.5 1.66667 17.1292 1.66667 16.6722V15.8333H16.6667V6.08333L10 12.0833L1.66667 4.58333V3.33333C1.66667 2.8731 2.03977 2.5 2.5 2.5H17.5ZM6.66667 12.5V14.1667H0V12.5H6.66667ZM4.16667 8.33333V10H0V8.33333H4.16667ZM16.3049 4.16667H3.69512L10 9.84108L16.3049 4.16667Z" fill="white" fill-opacity="0.4"/>
    </symbol>
    <symbol id="icon-send" xmlns="http://www.w3.org/2000/svg" fill="none">
        <path d="M1.94607 10.3153C1.42353 10.1411 1.4194 9.8601 1.95682 9.68096L21.043 3.31889C21.5715 3.14273 21.8746 3.43854 21.7265 3.95682L16.2733 23.0431C16.1223 23.5715 15.8177 23.5899 15.5944 23.0875L11.9999 14.9999L17.9999 6.99993L9.99992 12.9999L1.94607 10.3153Z" fill="white"/>
    </symbol>
</svg>
