<!DOCTYPE svg PUBLIC "-//W3C//DTD SVG 1.1//EN" "http://www.w3.org/Graphics/SVG/1.1/DTD/svg11.dtd">
<!-- Uploaded to: SVG Repo, www.svgrepo.com, Transformed by: SVG Repo Mixer Tools -->
<svg version="1.1" id="Layer_1" xmlns="http://www.w3.org/2000/svg" xmlns:xlink="http://www.w3.org/1999/xlink" viewBox="0 0 512 512" xml:space="preserve" width="800px" height="800px" fill="#000000">
<g id="SVGRepo_bgCarrier" stroke-width="0"/>
<g id="SVGRepo_tracerCarrier" stroke-linecap="round" stroke-linejoin="round"/>
<g id="SVGRepo_iconCarrier"> <rect x="73.772" y="239.45" style="fill:#6d83df;" width="364.451" height="182.1"/> <g> <path style="fill:#50537c;" d="M497.246,316.172c-8.149,0-14.754,6.607-14.754,14.754v115.939l-29.509-29.509v-177.91 c0-8.147-6.606-14.754-14.754-14.754H161.46l17.037-29.509h318.747c8.149,0,14.754-6.607,14.754-14.754 c0-8.147-6.606-14.755-14.754-14.755h-301.71l60.465-104.727l46.415,80.391c4.074,7.056,13.096,9.475,20.155,5.4 c7.057-4.075,9.475-13.098,5.4-20.155L268.777,24.061c-2.635-4.565-7.506-7.377-12.777-7.377c-5.272,0-10.142,2.812-12.777,7.377 L161.46,165.674H14.754C6.606,165.674,0,172.282,0,180.429v300.133c0,8.147,6.606,14.755,14.754,14.755h482.491 c8.149,0,14.754-6.607,14.754-14.755V330.926C512,322.777,505.394,316.172,497.246,316.172z M29.509,216.71l29.509,29.509v169.874 l-29.509,29.509V216.71z M80.549,436.298h349.642l29.509,29.509H51.04L80.549,436.298z M423.472,406.789H88.527V254.201h334.945 V406.789z M127.386,224.692H79.223l-29.509-29.509h94.711L127.386,224.692z"/> <path style="fill:#50537c;" d="M162.454,316.809c-6.138-2.706-11.438-5.042-11.438-8.274c0-3.112,3.787-5.046,9.885-5.046 c5.428,0,8.237,1.456,10.716,2.74c1.843,0.955,3.584,1.858,5.859,1.858c6.865,0,9.714-7.903,9.714-12.136 c0-11.932-20.122-12.86-26.29-12.86c-15.309,0-33.186,7.14-33.186,27.259c0,17.879,13.925,24.349,25.115,29.547 c8.208,3.813,13.238,6.377,13.238,10.861c0,5.611-8.547,5.772-9.523,5.772c-5.824,0-9.371-2.733-12.5-5.14 c-2.547-1.961-4.952-3.813-8.068-3.813c-6.277,0-10.44,7.45-10.44,12.378c0,9.558,14.66,17.941,31.371,17.941 c19.718,0,32.46-11.411,32.46-29.072C189.369,328.675,173.814,321.817,162.454,316.809z"/> <path style="fill:#50537c;" d="M239.963,290.933c-1.498-4.764-7.169-7.841-14.452-7.841c-7.283,0-12.956,3.078-14.458,7.858 l-22.533,73.911c-0.152,0.606-0.308,1.233-0.308,1.869c0,6.169,8.336,9.956,14.312,9.956c5.949,0,7.752-3.205,8.305-5.14 l3.669-13.492h22.145l3.677,13.518c0.546,1.909,2.349,5.114,8.299,5.114c5.976,0,14.312-3.787,14.312-9.956 c0-0.639-0.164-1.293-0.338-1.98L239.963,290.933z M231.446,339.109h-11.87l5.936-21.791L231.446,339.109z"/> <path style="fill:#50537c;" d="M314.197,355.805h-25.372v-64.089c0-4.798-4.572-7.9-11.65-7.9c-7.076,0-11.65,3.101-11.65,7.9 v76.949c0,4.646,4.391,8.021,10.44,8.021h38.233c4.509,0,7.658-4.294,7.658-10.44S318.704,355.805,314.197,355.805z"/> <path style="fill:#50537c;" d="M378.562,355.805h-30.211v-16.14h15.935c5.186,0,7.9-4.704,7.9-9.353c0-5.559-3.323-9.593-7.9-9.593 h-15.935V304.7h30.211c4.651,0,7.9-4.342,7.9-10.561c0-6.076-3.249-10.319-7.9-10.319h-43.071c-6.049,0-10.44,3.373-10.44,8.021 v76.828c0,4.646,4.391,8.021,10.44,8.021h43.071c4.651,0,7.9-4.243,7.9-10.319C386.461,360.148,383.214,355.805,378.562,355.805z"/> </g> </g>
</svg>